<?xml version="1.0" encoding="utf-8"?>
<!-- Generator: Adobe Illustrator 26.4.1, SVG Export Plug-In . SVG Version: 6.00 Build 0)  -->
<svg version="1.1" id="图层_1" xmlns="http://www.w3.org/2000/svg" xmlns:xlink="http://www.w3.org/1999/xlink" x="0px"
	y="0px" viewBox="0 0 368 56" style="enable-background:new 0 0 368 56;" xml:space="preserve">
	<style type="text/css">
		.st0 {
			fill: currentColor;
		}

		.st1 {
			display: none;
			fill: currentColor;
		}

		.st2 {
			font-family: 'JetBrainsMono-Medium';
		}

		.st3 {
			font-size: 55px;
		}
	</style>
	<g id="文字">
		<g>
			<path class="st0" d="M96.07,48.44V8.29h7.04l11.99,33.88c-0.11-0.95-0.21-2.14-0.3-3.55c-0.09-1.41-0.17-2.88-0.22-4.4
			c-0.05-1.52-0.08-2.96-0.08-4.32V8.29h5.17v40.15h-7.1l-11.88-33.88c0.07,0.95,0.15,2.12,0.22,3.49c0.07,1.38,0.14,2.81,0.19,4.32
			c0.05,1.5,0.08,2.92,0.08,4.23v21.83H96.07z" />
			<path class="st0" d="M140.84,48.99c-2.42,0-4.54-0.49-6.35-1.46s-3.22-2.33-4.21-4.07c-0.99-1.74-1.48-3.79-1.48-6.13v-8.08
			c0-2.31,0.5-4.34,1.48-6.08c0.99-1.74,2.39-3.1,4.21-4.07c1.81-0.97,3.93-1.46,6.35-1.46s4.54,0.49,6.35,1.46
			c1.81,0.97,3.22,2.33,4.21,4.07c0.99,1.74,1.48,3.77,1.48,6.08v5.39h-18.75v2.7c0,2.35,0.58,4.12,1.73,5.33
			c1.16,1.21,2.81,1.81,4.98,1.81c1.83,0,3.3-0.32,4.4-0.96s1.8-1.6,2.09-2.89h5.39c-0.37,2.57-1.64,4.6-3.82,6.1
			C146.71,48.24,144.03,48.99,140.84,48.99z M134.13,29.25v1.48h13.48v-1.48c0-2.31-0.58-4.08-1.73-5.31
			c-1.16-1.23-2.83-1.84-5.03-1.84s-3.87,0.61-5,1.84C134.7,25.17,134.13,26.94,134.13,29.25z" />
			<path class="st0" d="M159.87,48.44l10.73-15.56l-10.01-14.69h6.32l5.67,8.85c0.26,0.44,0.5,0.9,0.74,1.38
			c0.24,0.48,0.43,0.86,0.58,1.15c0.11-0.29,0.28-0.68,0.52-1.15c0.24-0.48,0.49-0.94,0.74-1.38l5.72-8.85h6.27l-10.01,14.74
			l10.67,15.51h-6.38l-6.16-9.51c-0.26-0.4-0.51-0.87-0.77-1.4c-0.26-0.53-0.46-0.96-0.6-1.29c-0.18,0.33-0.4,0.76-0.66,1.29
			c-0.26,0.53-0.53,1-0.83,1.4l-6.21,9.51H159.87z" />
			<path class="st0" d="M210.14,48.44c-2.6,0-4.67-0.75-6.19-2.25c-1.52-1.5-2.28-3.5-2.28-6V23.14h-8.47v-4.95h8.47V9.67h5.45v8.52
			h11.93v4.95h-11.93v16.99c0,0.99,0.28,1.8,0.85,2.42c0.57,0.62,1.33,0.93,2.28,0.93h8.25v4.95H210.14z" />
			<path class="st0" d="M240,48.99c-2.6,0-4.88-0.46-6.82-1.38c-1.94-0.92-3.45-2.21-4.51-3.88c-1.06-1.67-1.59-3.64-1.59-5.91h5.44
			c0,1.91,0.69,3.44,2.06,4.59s3.2,1.73,5.47,1.73c2.2,0,3.94-0.58,5.22-1.73s1.93-2.69,1.93-4.59c0-1.5-0.4-2.83-1.21-3.99
			c-0.81-1.15-1.91-1.93-3.3-2.34l-5.67-1.71c-2.82-0.84-5.01-2.25-6.57-4.23s-2.34-4.31-2.34-6.99c0-3.3,1.08-5.93,3.24-7.89
			c2.16-1.96,5.08-2.94,8.75-2.94c3.63,0,6.53,0.98,8.69,2.94c2.16,1.96,3.25,4.57,3.25,7.84h-5.45c0-1.8-0.59-3.25-1.76-4.35
			c-1.17-1.1-2.75-1.65-4.73-1.65c-2.02,0-3.63,0.54-4.84,1.62c-1.21,1.08-1.81,2.52-1.81,4.32c0,1.43,0.41,2.66,1.24,3.69
			c0.83,1.03,1.97,1.76,3.44,2.2l5.83,1.81c2.68,0.84,4.79,2.29,6.33,4.34c1.54,2.05,2.31,4.47,2.31,7.26
			c0,2.27-0.52,4.25-1.57,5.94s-2.5,2.99-4.37,3.9C244.79,48.53,242.57,48.99,240,48.99z" />
			<path class="st0" d="M276.13,48.44c-2.6,0-4.67-0.75-6.19-2.25c-1.52-1.5-2.28-3.5-2.28-6V23.14h-8.47v-4.95h8.47V9.67h5.45v8.52
			h11.93v4.95h-11.93v16.99c0,0.99,0.28,1.8,0.85,2.42c0.57,0.62,1.33,0.93,2.28,0.93h8.25v4.95H276.13z" />
			<path class="st0"
				d="M303.03,48.99c-3.19,0-5.69-0.82-7.51-2.45c-1.82-1.63-2.72-3.84-2.72-6.63c0-2.86,0.94-5.11,2.83-6.74
			c1.89-1.63,4.46-2.45,7.73-2.45h8.8v-2.86c0-1.76-0.54-3.13-1.62-4.1c-1.08-0.97-2.58-1.46-4.48-1.46c-1.72,0-3.16,0.38-4.32,1.13
			c-1.16,0.75-1.86,1.73-2.12,2.94h-5.33c0.15-1.76,0.75-3.29,1.81-4.59c1.06-1.3,2.46-2.32,4.18-3.05c1.72-0.73,3.67-1.1,5.83-1.1
			c3.52,0,6.32,0.91,8.39,2.72c2.07,1.81,3.11,4.26,3.11,7.34v20.73h-5.33v-5.61h-0.05c-0.26,1.91-1.21,3.41-2.86,4.51
			C307.71,48.44,305.6,48.99,303.03,48.99z M304.51,44.75c2.2,0,4.02-0.56,5.47-1.68c1.45-1.12,2.17-2.56,2.17-4.32v-4.12h-8.69
			c-1.61,0-2.89,0.44-3.82,1.32c-0.94,0.88-1.4,2.07-1.4,3.57c0,1.65,0.55,2.93,1.65,3.85C301,44.3,302.54,44.75,304.51,44.75z" />
			<path class="st0" d="M328.11,48.44V18.19h5.39v5.77h0.11c0.26-2.02,1.09-3.57,2.5-4.67c1.41-1.1,3.27-1.65,5.58-1.65
			c3.12,0,5.61,1.01,7.48,3.02c1.87,2.02,2.8,4.73,2.8,8.14V31h-5.5v-1.76c0-2.16-0.56-3.85-1.68-5.06
			c-1.12-1.21-2.76-1.81-4.92-1.81c-4.22,0-6.33,2.33-6.33,6.98v19.08H328.11z" />
		</g>
		<text transform="matrix(1 0 0 1 91.3378 48.4398)" class="st1 st2 st3">NextStar</text>
	</g>
	<g id="icon">
		<path class="st0" d="M67.22,27.95l-10.26-5.56c-0.55-0.3-0.9-0.91-0.9-1.57V9.33c0-1.47-0.84-2.79-2.11-3.3l-9.01-3.66
		c-1.23-0.5-2.58-0.5-3.8,0.01l-8.97,3.68c-1.26,0.52-2.1,1.83-2.1,3.3v11.4c0,0.67-0.35,1.28-0.9,1.57l-10.35,5.61
		c-1.1,0.6-1.8,1.82-1.8,3.16l0.03,12.44c0,1.28,0.64,2.45,1.67,3.07l11.35,6.86l0.06,0.04c0.96,0.58,2.13,0.57,3.08-0.01l0.1-0.06
		l8.91-5.55c0.5-0.31,1.12-0.31,1.62,0.01l8.96,5.64c0.96,0.59,2.13,0.59,3.09,0.02l0.15-0.09l11.3-6.8
		c1.03-0.62,1.67-1.81,1.67-3.08L69.02,31.1C69.02,29.77,68.32,28.54,67.22,27.95z M33.3,10.39l5.85,2.54
		c1.37,0.59,2.27,2.03,2.27,3.63v8.98c0,0.32-0.31,0.54-0.59,0.4l-6.61-3.57c-0.55-0.3-0.9-0.91-0.9-1.57L33.3,10.39z M30.07,49.13
		l-8.87-4.72c-0.55-0.3-0.91-0.91-0.91-1.58l-0.02-10.43l7.8,4.22c1.22,0.66,2,2.02,2,3.5C30.07,40.11,30.07,49.13,30.07,49.13z
		 M33.32,34.02c-1.02,0.56-2.22,0.55-3.24,0l-0.01-0.01l-7.56-4.13l7.56-4.1l0.85-0.46c0.47-0.25,1.01-0.25,1.48,0.02l0.92,0.52
		l6.58,3.54c0.29,0.16,0.3,0.61,0.01,0.78C39.91,30.18,33.32,34.02,33.32,34.02z M40.52,45.24l-7.19,3.89l-0.04-9.01
		c-0.01-1.49,0.77-2.85,1.99-3.52l5.52-3c0.27-0.15,0.59,0.07,0.59,0.39l0.04,9.67C41.42,44.33,41.07,44.94,40.52,45.24z
		 M36.55,7.75l6.49-2.64l6.49,2.64l-5.22,2.13c-0.82,0.33-1.71,0.33-2.53,0L36.55,7.75z M52.78,10.39l0.03,10.34
		c0,0.67-0.34,1.28-0.9,1.58l-6.66,3.62c-0.27,0.15-0.59-0.07-0.59-0.4v-8.97c0-1.6,0.9-3.04,2.27-3.63L52.78,10.39z M52.82,49.51
		l-7.29-4.25c-0.53-0.31-0.86-0.9-0.86-1.55v-9.69c0-0.32,0.32-0.54,0.59-0.4l5.54,3.01c1.22,0.66,1.99,2.01,1.99,3.49
		C52.79,40.11,52.82,49.51,52.82,49.51z M52.71,34.06l-6.55-3.88c-0.29-0.17-0.28-0.62,0.02-0.78l6.64-3.6l0.82-0.47
		c0.46-0.26,1.01-0.27,1.48-0.02l0.95,0.51l7.47,4.06l-7.42,4.21C55.04,34.7,53.77,34.69,52.71,34.06z M56.06,49.45l-0.03-9.31
		c-0.01-1.49,0.77-2.85,1.99-3.51l7.74-4.2v10.39c0,0.66-0.33,1.25-0.86,1.56C64.9,44.37,56.06,49.45,56.06,49.45z" />
	</g>
</svg>